<?xml version="1.0" encoding="utf-8"?>
<svg viewBox="0 0 500 500" xmlns="http://www.w3.org/2000/svg">
  <defs>
    <pattern id="pattern-0" x="0" y="0" width="20" height="20" patternUnits="userSpaceOnUse" viewBox="0 0 100 100">
      <path d="M 0 0 L 50 0 L 50 100 L 0 100 Z" style="fill: black;"/>
    </pattern>
  </defs>
  <g>
    <g>
      <path d="M 67.411 239.03 C 74.952 205.883 68.326 163.088 67.334 162.753 C 78.318 164.687 120.819 167.847 150.638 161.366 C 155.93 165.839 160.782 175.721 181.312 181.873 C 232.009 194.964 231.67 205.467 284.53 215.103 C 297.952 217.55 298.482 234.418 291.825 237.742 L 67.411 239.03 Z" style="stroke: rgb(0, 0, 0); fill: rgb(218, 173, 134); stroke-linejoin: bevel; stroke-linecap: round;" transform="matrix(0.896238, -0.443574, 0.443574, 0.896238, -69.95255, 101.355492)"/>
      <rect x="124.563" y="133.385" width="78.084" height="9.559" style="stroke: rgb(0, 0, 0); fill: rgb(92, 92, 92);" transform="matrix(0.893604, -0.448857, 0.44007, 0.898016, -74.080035, 222.329379)"/>
      <path d="M 158.906 217.113 L 310.226 216.231 L 310.286 223.533 C 307.919 223.59 213.405 223.357 212.243 223.14 C 189.684 218.932 193.384 220.424 159.185 220.336 L 158.906 217.113 Z" style="stroke: rgb(0, 0, 0); fill: rgb(92, 92, 92);" transform="matrix(0.896238, -0.443573, 0.443573, 0.896238, -73.193577, 126.876331)"/>
      <line x1="73.614" y1="303.311" x2="320.599" y2="303.311" style="paint-order: stroke; stroke-width: 5; fill: rgb(92, 92, 92); stroke: rgb(92, 92, 92);"/>
      <text x="807.558" y="842.808" transform="matrix(0.263832, 1.159637, -1.269235, 0.297349, 1074.285767, -964.773865)" style="fill: rgb(218, 173, 134); font-family: sans-serif; font-size: 80.6px; font-weight: bold; stroke-width: 0.880306px; white-space: pre;">W</text>
    </g>
  </g>
</svg>